<?xml version="1.0" encoding="UTF-8" standalone="no" ?>
<!DOCTYPE svg PUBLIC "-//W3C//DTD SVG 1.1//EN" "http://www.w3.org/Graphics/SVG/1.1/DTD/svg11.dtd">
<svg xmlns="http://www.w3.org/2000/svg" xmlns:xlink="http://www.w3.org/1999/xlink" version="1.1" width="1196.6150521850586" height="583.4312" xml:space="preserve">
<desc>Created with Fabric.js 1.6.0-rc.1</desc>
<defs></defs>
<g style="stroke: none; stroke-width: 1; stroke-dasharray: none; stroke-linecap: butt; stroke-linejoin: miter; stroke-miterlimit: 10; fill: none; fill-rule: nonzero; opacity: 1;" transform="translate(10.92999999999995 10) scale(2.39 2.39)" >
  <path d="M 101.026 188.89 c -1.322 0 -2.702 -0.035 -4.219 -0.107 l -3.07 -0.146 l -4.636 -21.409 a 62.599 62.599 0 0 1 -4.286 -0.971 L 71.34 183.531 l -2.825 -1.193 a 84 84 0 0 1 -7.6 -3.669 l -2.684 -1.466 l 5.095 -21.306 a 62.978 62.978 0 0 1 -3.416 -2.734 l -19.613 9.705 l -2.027 -2.293 a 84.47 84.47 0 0 1 -5.28 -6.609 l -1.788 -2.486 l 13.828 -16.973 a 63.357 63.357 0 0 1 -1.903 -3.944 l -21.896 0.234 l -0.833 -2.944 a 82.489 82.489 0 0 1 -1.874 -8.26 l -0.523 -3.01 l 19.82 -9.289 a 56.473 56.473 0 0 1 -0.044 -2.185 c 0 -0.71 0.015 -1.437 0.044 -2.187 L 18 93.628 l 0.524 -3.01 a 82.975 82.975 0 0 1 1.873 -8.244 l 0.831 -2.948 l 21.9 0.237 a 64.221 64.221 0 0 1 1.905 -3.949 L 31.204 58.748 l 1.784 -2.486 a 81.139 81.139 0 0 1 5.291 -6.621 l 2.028 -2.279 l 19.609 9.704 a 63.489 63.489 0 0 1 3.412 -2.734 l -5.097 -21.319 l 2.688 -1.465 a 84.894 84.894 0 0 1 7.6 -3.666 l 2.821 -1.188 L 84.824 43.96 a 62.652 62.652 0 0 1 4.277 -0.967 l 4.635 -21.406 l 3.067 -0.147 a 87.09 87.09 0 0 1 8.443 0 l 3.065 0.147 l 4.648 21.407 c 1.44 0.274 2.868 0.597 4.276 0.967 l 13.473 -17.267 l 2.823 1.189 a 85.202 85.202 0 0 1 7.61 3.671 l 2.692 1.465 l -5.107 21.311 a 63.142 63.142 0 0 1 3.416 2.737 l 19.606 -9.704 l 2.028 2.283 a 81.603 81.603 0 0 1 5.292 6.62 l 1.782 2.486 l -13.831 16.968 a 65.067 65.067 0 0 1 1.904 3.947 l 21.897 -0.238 l 0.83 2.949 a 78.654 78.654 0 0 1 1.875 8.261 l 0.509 2.999 l -19.806 9.289 a 57.954 57.954 0 0 1 0 4.37 l 19.805 9.284 l -0.507 2.998 a 79.45 79.45 0 0 1 -1.877 8.277 l -0.832 2.944 l -21.893 -0.235 a 63.96 63.96 0 0 1 -1.904 3.941 l 13.831 16.976 l -1.787 2.486 a 83.736 83.736 0 0 1 -5.284 6.612 l -2.027 2.291 l -19.611 -9.706 a 62.334 62.334 0 0 1 -3.418 2.738 l 5.108 21.309 l -2.694 1.465 a 86.596 86.596 0 0 1 -7.605 3.664 l -2.825 1.194 l -13.471 -17.274 a 62.914 62.914 0 0 1 -4.279 0.97 l -4.649 21.409 l -3.067 0.146 a 93.57 93.57 0 0 1 -4.216 0.104 z m -0.781 -8.005 c 0.527 0.006 1.036 0.006 1.563 0 l 4.498 -20.716 l 2.747 -0.397 a 54.053 54.053 0 0 0 8.476 -1.923 l 2.648 -0.833 l 13.031 16.71 c 0.47 -0.221 0.938 -0.446 1.403 -0.677 l -4.94 -20.607 l 2.298 -1.552 a 54.66 54.66 0 0 0 6.785 -5.433 l 2.024 -1.897 l 18.986 9.396 c 0.331 -0.405 0.657 -0.813 0.979 -1.224 l -13.38 -16.42 l 1.395 -2.393 a 55.992 55.992 0 0 0 3.785 -7.837 l 1.003 -2.579 l 21.176 0.228 c 0.122 -0.51 0.237 -1.018 0.347 -1.522 l -19.199 -9.001 l 0.223 -2.767 c 0.121 -1.49 0.182 -2.948 0.182 -4.332 a 53.91 53.91 0 0 0 -0.182 -4.335 l -0.223 -2.765 l 19.198 -9.004 a 66.378 66.378 0 0 0 -0.345 -1.513 l -21.172 0.229 l -1.006 -2.574 a 56.93 56.93 0 0 0 -3.79 -7.855 l -1.39 -2.392 l 13.379 -16.413 c -0.321 -0.41 -0.646 -0.817 -0.977 -1.221 l -18.987 9.397 l -2.023 -1.894 a 54.655 54.655 0 0 0 -6.784 -5.428 l -2.303 -1.55 l 4.942 -20.62 a 74.988 74.988 0 0 0 -1.404 -0.678 l -13.027 16.695 l -2.642 -0.823 a 55.516 55.516 0 0 0 -8.488 -1.921 l -2.745 -0.399 l -4.497 -20.708 a 81.642 81.642 0 0 0 -1.565 0 l -4.485 20.708 l -2.748 0.398 a 54.96 54.96 0 0 0 -8.485 1.92 l -2.642 0.826 l -13.04 -16.696 c -0.465 0.219 -0.93 0.443 -1.394 0.673 l 4.93 20.621 l -2.293 1.551 a 55.762 55.762 0 0 0 -6.789 5.435 l -2.023 1.89 l -18.986 -9.396 c -0.329 0.402 -0.654 0.81 -0.976 1.221 l 13.381 16.417 l -1.395 2.394 a 55.607 55.607 0 0 0 -3.783 7.843 l -1.003 2.581 l -21.18 -0.229 c -0.12 0.503 -0.234 1.008 -0.344 1.515 l 19.195 9 l -0.219 2.762 a 54.893 54.893 0 0 0 -0.187 4.34 c 0 1.338 0.061 2.757 0.187 4.338 l 0.22 2.763 l -19.198 8.997 c 0.11 0.511 0.225 1.019 0.345 1.524 l 21.18 -0.228 l 1.003 2.58 a 54.814 54.814 0 0 0 3.777 7.824 l 1.407 2.396 l -13.384 16.428 c 0.321 0.41 0.647 0.818 0.978 1.223 l 18.992 -9.397 l 2.024 1.904 a 54.407 54.407 0 0 0 6.778 5.426 l 2.293 1.552 l -4.93 20.614 c 0.462 0.229 0.926 0.452 1.394 0.672 l 13.035 -16.709 l 2.646 0.831 a 54.331 54.331 0 0 0 8.485 1.924 l 2.75 0.397 l 4.485 20.715 z" style="stroke: none; stroke-width: 1; stroke-dasharray: none; stroke-linecap: butt; stroke-linejoin: miter; stroke-miterlimit: 10; fill: #140f3d; fill-rule: nonzero; opacity: 1;" transform="" stroke-linecap="round" />
  <path d="M 60.649 126.512 s 15.316 -15.445 15.643 -15.777 c -1.699 -9.754 2.091 -19.987 9.267 -27.25 c 8.431 -8.532 18.429 -10.541 29.374 -6.74 l 1.593 0.593 a 5.882 5.882 0 0 0 0.239 0.066 c 0.415 0.114 0.829 0.237 1.24 0.373 l -18.741 18.97 c -1.869 1.892 -1.966 4.832 -0.214 6.563 l 9.787 9.672 a 0.083 0.083 0 0 1 0.019 0.015 c 1.357 0.342 3.189 -1.257 4.375 -2.453 l 18.563 -18.791 l 3.036 1.113 c 3.934 10.901 1.026 23.456 -7.406 31.985 c -7.176 7.263 -17.22 10.574 -26.997 8.991 l -15.116 15.301 c 0 -0.002 -18.909 -5.846 -24.662 -22.631 z" style="stroke: none; stroke-width: 1; stroke-dasharray: none; stroke-linecap: butt; stroke-linejoin: miter; stroke-miterlimit: 10; fill: #fcf9f7; fill-rule: nonzero; opacity: 1;" transform="" stroke-linecap="round" />
  <path d="M 101.025 157.399 c -27.424 0 -49.734 -22.311 -49.734 -49.734 c 0 -27.424 22.311 -49.735 49.734 -49.735 c 27.423 0 49.735 22.311 49.735 49.735 c 0.001 27.424 -22.311 49.734 -49.735 49.734 z m 0 -91.469 c -23.012 0 -41.734 18.722 -41.734 41.735 c 0 23.013 18.722 41.734 41.734 41.734 c 23.013 0 41.735 -18.722 41.735 -41.734 c 0.001 -23.013 -18.722 -41.735 -41.735 -41.735 z" style="stroke: none; stroke-width: 1; stroke-dasharray: none; stroke-linecap: butt; stroke-linejoin: miter; stroke-miterlimit: 10; fill: #140f3d; fill-rule: nonzero; opacity: 1;" transform="" stroke-linecap="round" />
</g>
<g style="stroke: none; stroke-width: 1; stroke-dasharray: none; stroke-linecap: butt; stroke-linejoin: miter; stroke-miterlimit: 10; fill: none; fill-rule: nonzero; opacity: 1;" transform="translate(190.92999999999995 210) scale(0.24 0.24)" >
  <path d="M 256 200.348 H 105.739 V 83.478 c 0 -9.22 7.475 -16.696 16.696 -16.696 H 256 c 9.22 0 16.696 7.475 16.696 16.696 v 100.174 C 272.696 192.873 265.22 200.348 256 200.348 z" style="stroke: none; stroke-width: 1; stroke-dasharray: none; stroke-linecap: butt; stroke-linejoin: miter; stroke-miterlimit: 10; fill: #736056; fill-rule: nonzero; opacity: 1;" transform=" matrix(1 0 0 1 0 0) " stroke-linecap="round" />
  <path d="M 406.261 200.348 V 83.478 c 0 -9.22 -7.475 -16.696 -16.696 -16.696 H 256 v 133.565 H 406.261 z" style="stroke: none; stroke-width: 1; stroke-dasharray: none; stroke-linecap: butt; stroke-linejoin: miter; stroke-miterlimit: 10; fill: #665247; fill-rule: nonzero; opacity: 1;" transform=" matrix(1 0 0 1 0 0) " stroke-linecap="round" />
  <path d="M 144.696 512 h -33.391 c -27.619 0 -50.087 -22.468 -50.087 -50.087 v -33.391 c 0 -9.223 7.479 -16.696 16.696 -16.696 h 100.174 c 9.217 0 16.696 7.473 16.696 16.696 v 33.391 C 194.783 489.532 172.315 512 144.696 512 z" style="stroke: none; stroke-width: 1; stroke-dasharray: none; stroke-linecap: butt; stroke-linejoin: miter; stroke-miterlimit: 10; fill: #736056; fill-rule: nonzero; opacity: 1;" transform=" matrix(1 0 0 1 0 0) " stroke-linecap="round" />
  <path d="M 400.696 512 h -33.391 c -27.619 0 -50.087 -22.468 -50.087 -50.087 v -33.391 c 0 -9.223 7.479 -16.696 16.696 -16.696 h 100.174 c 9.217 0 16.696 7.473 16.696 16.696 v 33.391 C 450.783 489.532 428.315 512 400.696 512 z" style="stroke: none; stroke-width: 1; stroke-dasharray: none; stroke-linecap: butt; stroke-linejoin: miter; stroke-miterlimit: 10; fill: #665247; fill-rule: nonzero; opacity: 1;" transform=" matrix(1 0 0 1 0 0) " stroke-linecap="round" />
  <path d="M 456.348 445.217 H 55.652 c -27.619 0 -50.087 -22.468 -50.087 -50.087 v -33.391 c 0 -9.223 7.479 -16.696 16.696 -16.696 h 467.478 c 9.217 0 16.696 7.473 16.696 16.696 v 33.391 C 506.435 422.749 483.967 445.217 456.348 445.217 z" style="stroke: none; stroke-width: 1; stroke-dasharray: none; stroke-linecap: butt; stroke-linejoin: miter; stroke-miterlimit: 10; fill: #01080f; fill-rule: nonzero; opacity: 1;" transform=" matrix(1 0 0 1 0 0) " stroke-linecap="round" />
  <path d="M 489.739 345.043 H 256 v 100.174 h 200.348 c 27.619 0 50.087 -22.468 50.087 -50.087 v -33.391 C 506.435 352.516 498.956 345.043 489.739 345.043 z" style="stroke: none; stroke-width: 1; stroke-dasharray: none; stroke-linecap: butt; stroke-linejoin: miter; stroke-miterlimit: 10; fill: #02080f; fill-rule: nonzero; opacity: 1;" transform=" matrix(1 0 0 1 0 0) " stroke-linecap="round" />
  <path d="M 55.652 166.957 c -9.217 0 -16.696 -7.473 -16.696 -16.696 V 50.087 c 0 -9.206 -7.49 -16.696 -16.696 -16.696 c -9.217 0 -16.696 -7.473 -16.696 -16.696 S 13.044 0 22.261 0 C 49.88 0 72.348 22.468 72.348 50.087 v 100.174 C 72.348 159.484 64.869 166.957 55.652 166.957 z" style="stroke: none; stroke-width: 1; stroke-dasharray: none; stroke-linecap: butt; stroke-linejoin: miter; stroke-miterlimit: 10; fill: #C9D2D9; fill-rule: nonzero; opacity: 1;" transform=" matrix(1 0 0 1 0 0) " stroke-linecap="round" />
  <path d="M 456.348 166.957 c -9.217 0 -16.696 -7.473 -16.696 -16.696 V 50.087 C 439.652 22.468 462.12 0 489.739 0 c 9.217 0 16.696 7.473 16.696 16.696 s -7.479 16.696 -16.696 16.696 c -9.206 0 -16.696 7.49 -16.696 16.696 v 100.174 C 473.043 159.484 465.565 166.957 456.348 166.957 z" style="stroke: none; stroke-width: 1; stroke-dasharray: none; stroke-linecap: butt; stroke-linejoin: miter; stroke-miterlimit: 10; fill: #B7C4CC; fill-rule: nonzero; opacity: 1;" transform=" matrix(1 0 0 1 0 0) " stroke-linecap="round" />
  <path d="M 272.696 184.634 v -68.745 c 0 -8.68 7.036 -15.715 15.714 -15.715 h 117.851 V 83.478 C 406.261 37.375 368.886 0 322.783 0 H 189.217 c -46.103 0 -83.478 37.375 -83.478 83.478 v 16.696 H 223.59 c 8.678 0 15.714 7.036 15.714 15.714 v 68.745 c 0 8.678 -7.036 15.714 -15.714 15.714 H 72.348 v 161.391 c 0 9.22 7.475 16.696 16.696 16.696 h 66.783 c 9.22 0 16.696 -7.475 16.696 -16.696 v -61.217 h 166.957 v 61.217 c 0 9.22 7.475 16.696 16.696 16.696 h 66.783 c 9.22 0 16.696 -7.475 16.696 -16.696 v -161.39 H 288.41 C 279.731 200.348 272.696 193.312 272.696 184.634 z" style="stroke: none; stroke-width: 1; stroke-dasharray: none; stroke-linecap: butt; stroke-linejoin: miter; stroke-miterlimit: 10; fill: #cc2944; fill-rule: nonzero; opacity: 1;" transform=" matrix(1 0 0 1 0 0) " stroke-linecap="round" />
  <path d="M 288.41 200.348 c -8.678 0 -15.714 -7.036 -15.714 -15.714 v -68.745 c 0 -8.68 7.036 -15.715 15.714 -15.715 h 117.851 V 83.478 C 406.261 37.375 368.886 0 322.783 0 H 256 v 300.522 h 83.478 v 61.217 c 0 9.22 7.475 16.696 16.696 16.696 h 66.783 c 9.22 0 16.696 -7.475 16.696 -16.696 V 200.348 H 288.41 z" style="stroke: none; stroke-width: 1; stroke-dasharray: none; stroke-linecap: butt; stroke-linejoin: miter; stroke-miterlimit: 10; fill: #b53535; fill-rule: nonzero; opacity: 1;" transform=" matrix(1 0 0 1 0 0) " stroke-linecap="round" />
  <path d="M 372.87 378.435 H 139.13 v -116.87 c 0 -9.22 7.475 -16.696 16.696 -16.696 h 200.348 c 9.22 0 16.696 7.475 16.696 16.696 V 378.435 z" style="stroke: none; stroke-width: 1; stroke-dasharray: none; stroke-linecap: butt; stroke-linejoin: miter; stroke-miterlimit: 10; fill: #C9D2D9; fill-rule: nonzero; opacity: 1;" transform=" matrix(1 0 0 1 0 0) " stroke-linecap="round" />
  <path d="M 356.174 244.87 H 256 v 133.565 h 116.87 v -116.87 C 372.87 252.345 365.394 244.87 356.174 244.87 z" style="stroke: none; stroke-width: 1; stroke-dasharray: none; stroke-linecap: butt; stroke-linejoin: miter; stroke-miterlimit: 10; fill: #B7C4CC; fill-rule: nonzero; opacity: 1;" transform=" matrix(1 0 0 1 0 0) " stroke-linecap="round" />
  <path d="M 322.783 311.652 H 189.217 c -9.217 0 -16.696 -7.473 -16.696 -16.696 s 7.479 -16.696 16.696 -16.696 h 133.565 c 9.217 0 16.696 7.473 16.696 16.696 S 332 311.652 322.783 311.652 z" style="stroke: none; stroke-width: 1; stroke-dasharray: none; stroke-linecap: butt; stroke-linejoin: miter; stroke-miterlimit: 10; fill: #806F66; fill-rule: nonzero; opacity: 1;" transform=" matrix(1 0 0 1 0 0) " stroke-linecap="round" />
  <path d="M 256 311.652 h 66.783 c 9.217 0 16.696 -7.473 16.696 -16.696 s -7.479 -16.696 -16.696 -16.696 H 256 V 311.652 z" style="stroke: none; stroke-width: 1; stroke-dasharray: none; stroke-linecap: butt; stroke-linejoin: miter; stroke-miterlimit: 10; fill: #736056; fill-rule: nonzero; opacity: 1;" transform=" matrix(1 0 0 1 0 0) " stroke-linecap="round" />
  <path d="M 322.783 378.435 H 189.217 c -9.217 0 -16.696 -7.473 -16.696 -16.696 s 7.479 -16.696 16.696 -16.696 h 133.565 c 9.217 0 16.696 7.473 16.696 16.696 S 332 378.435 322.783 378.435 z" style="stroke: none; stroke-width: 1; stroke-dasharray: none; stroke-linecap: butt; stroke-linejoin: miter; stroke-miterlimit: 10; fill: #806F66; fill-rule: nonzero; opacity: 1;" transform=" matrix(1 0 0 1 0 0) " stroke-linecap="round" />
  <path d="M 256 378.435 h 66.783 c 9.217 0 16.696 -7.473 16.696 -16.696 s -7.479 -16.696 -16.696 -16.696 H 256 V 378.435 z" style="stroke: none; stroke-width: 1; stroke-dasharray: none; stroke-linecap: butt; stroke-linejoin: miter; stroke-miterlimit: 10; fill: #736056; fill-rule: nonzero; opacity: 1;" transform=" matrix(1 0 0 1 0 0) " stroke-linecap="round" />
  <path d="M 489.739 278.261 h -66.783 c -9.217 0 -16.696 -7.473 -16.696 -16.696 v -77.913 c 0 -13.364 5.218 -25.935 14.684 -35.403 s 22.044 -14.684 35.403 -14.684 c 27.619 0 50.087 22.468 50.087 50.087 v 77.913 C 506.435 270.788 498.956 278.261 489.739 278.261 z" style="stroke: none; stroke-width: 1; stroke-dasharray: none; stroke-linecap: butt; stroke-linejoin: miter; stroke-miterlimit: 10; fill: #02080f; fill-rule: nonzero; opacity: 1;" transform=" matrix(1 0 0 1 0 0) " stroke-linecap="round" />
  <path d="M 506.435 378.435 H 406.261 V 244.87 h 100.174 V 378.435 z" style="stroke: none; stroke-width: 1; stroke-dasharray: none; stroke-linecap: butt; stroke-linejoin: miter; stroke-miterlimit: 10; fill: #736056; fill-rule: nonzero; opacity: 1;" transform=" matrix(1 0 0 1 0 0) " stroke-linecap="round" />
  <path d="M 89.043 278.261 H 22.261 c -9.217 0 -16.696 -7.473 -16.696 -16.696 v -77.913 c 0 -27.619 22.468 -50.087 50.087 -50.087 c 13.359 0 25.935 5.218 35.403 14.684 c 9.466 9.468 14.684 22.038 14.684 35.403 v 77.913 C 105.739 270.788 98.261 278.261 89.043 278.261 z" style="stroke: none; stroke-width: 1; stroke-dasharray: none; stroke-linecap: butt; stroke-linejoin: miter; stroke-miterlimit: 10; fill: #01080f; fill-rule: nonzero; opacity: 1;" transform=" matrix(1 0 0 1 0 0) " stroke-linecap="round" />
  <path d="M 105.739 378.435 H 5.565 V 244.87 h 100.174 V 378.435 z" style="stroke: none; stroke-width: 1; stroke-dasharray: none; stroke-linecap: butt; stroke-linejoin: miter; stroke-miterlimit: 10; fill: #806F66; fill-rule: nonzero; opacity: 1;" transform=" matrix(1 0 0 1 0 0) " stroke-linecap="round" />
</g>
  <g transform="translate(599.3 529.71) rotate(359.75) scale(1.62 1.6)">
   <text font-family="zwodrei - free" font-size="40" font-weight="bold" style="stroke: none; stroke-width: 1; stroke-dasharray: none; stroke-linecap: butt; stroke-linejoin: miter; stroke-miterlimit: 10; fill: #000000; fill-rule: nonzero; opacity: 1;" ><tspan x="-363.15" y="8.98" style="stroke: none; stroke-width: 0; stroke-dasharray: none; stroke-linecap: butt; stroke-linejoin: miter; stroke-miterlimit: 4; fill: #000000; fill-rule: ; opacity: 1;">म</tspan><tspan x="-340.54" y="8.98" style="stroke: none; stroke-width: 0; stroke-dasharray: none; stroke-linecap: butt; stroke-linejoin: miter; stroke-miterlimit: 4; fill: #000000; fill-rule: ; opacity: 1;">ा</tspan><tspan x="-294.29" y="8.98" style="stroke: none; stroke-width: 0; stroke-dasharray: none; stroke-linecap: butt; stroke-linejoin: miter; stroke-miterlimit: 4; fill: #000000; fill-rule: ; opacity: 1;">न</tspan><tspan x="-271.43" y="8.98" style="stroke: none; stroke-width: 0; stroke-dasharray: none; stroke-linecap: butt; stroke-linejoin: miter; stroke-miterlimit: 4; fill: #000000; fill-rule: ; opacity: 1;">े</tspan><tspan x="-235.57" y="8.98" style="stroke: none; stroke-width: 0; stroke-dasharray: none; stroke-linecap: butt; stroke-linejoin: miter; stroke-miterlimit: 4; fill: #000000; fill-rule: ; opacity: 1;"> </tspan><tspan x="-225.17" y="8.98" style="stroke: none; stroke-width: 0; stroke-dasharray: none; stroke-linecap: butt; stroke-linejoin: miter; stroke-miterlimit: 4; fill: #000000; fill-rule: ; opacity: 1;">ट</tspan><tspan x="-203.1" y="8.98" style="stroke: none; stroke-width: 0; stroke-dasharray: none; stroke-linecap: butt; stroke-linejoin: miter; stroke-miterlimit: 4; fill: #000000; fill-rule: ; opacity: 1;">्</tspan><tspan x="-167.24" y="8.98" style="stroke: none; stroke-width: 0; stroke-dasharray: none; stroke-linecap: butt; stroke-linejoin: miter; stroke-miterlimit: 4; fill: #000000; fill-rule: ; opacity: 1;">र</tspan><tspan x="-150.21" y="8.98" style="stroke: none; stroke-width: 0; stroke-dasharray: none; stroke-linecap: butt; stroke-linejoin: miter; stroke-miterlimit: 4; fill: #000000; fill-rule: ; opacity: 1;">ॅ</tspan><tspan x="-114.35" y="8.98" style="stroke: none; stroke-width: 0; stroke-dasharray: none; stroke-linecap: butt; stroke-linejoin: miter; stroke-miterlimit: 4; fill: #000000; fill-rule: ; opacity: 1;">क</tspan><tspan x="-85.1" y="8.98" style="stroke: none; stroke-width: 0; stroke-dasharray: none; stroke-linecap: butt; stroke-linejoin: miter; stroke-miterlimit: 4; fill: #000000; fill-rule: ; opacity: 1;">्</tspan><tspan x="-49.24" y="8.98" style="stroke: none; stroke-width: 0; stroke-dasharray: none; stroke-linecap: butt; stroke-linejoin: miter; stroke-miterlimit: 4; fill: #000000; fill-rule: ; opacity: 1;">ट</tspan><tspan x="-27.17" y="8.98" style="stroke: none; stroke-width: 0; stroke-dasharray: none; stroke-linecap: butt; stroke-linejoin: miter; stroke-miterlimit: 4; fill: #000000; fill-rule: ; opacity: 1;">र</tspan><tspan x="-10.14" y="8.98" style="stroke: none; stroke-width: 0; stroke-dasharray: none; stroke-linecap: butt; stroke-linejoin: miter; stroke-miterlimit: 4; fill: #000000; fill-rule: ; opacity: 1;"> </tspan><tspan x="0.26" y="8.98" style="stroke: none; stroke-width: 0; stroke-dasharray: none; stroke-linecap: butt; stroke-linejoin: miter; stroke-miterlimit: 4; fill: #000000; fill-rule: ; opacity: 1;">ग</tspan><tspan x="20.46" y="8.98" style="stroke: none; stroke-width: 0; stroke-dasharray: none; stroke-linecap: butt; stroke-linejoin: miter; stroke-miterlimit: 4; fill: #000000; fill-rule: ; opacity: 1;">ॅ</tspan><tspan x="56.32" y="8.98" style="stroke: none; stroke-width: 0; stroke-dasharray: none; stroke-linecap: butt; stroke-linejoin: miter; stroke-miterlimit: 4; fill: #000000; fill-rule: ; opacity: 1;">र</tspan><tspan x="73.35" y="8.98" style="stroke: none; stroke-width: 0; stroke-dasharray: none; stroke-linecap: butt; stroke-linejoin: miter; stroke-miterlimit: 4; fill: #000000; fill-rule: ; opacity: 1;">े</tspan><tspan x="109.21" y="8.98" style="stroke: none; stroke-width: 0; stroke-dasharray: none; stroke-linecap: butt; stroke-linejoin: miter; stroke-miterlimit: 4; fill: #000000; fill-rule: ; opacity: 1;">ज</tspan><tspan x="137.65" y="8.98" style="stroke: none; stroke-width: 0; stroke-dasharray: none; stroke-linecap: butt; stroke-linejoin: miter; stroke-miterlimit: 4; fill: #000000; fill-rule: ; opacity: 1;">,</tspan><tspan x="148.97" y="8.98" style="stroke: none; stroke-width: 0; stroke-dasharray: none; stroke-linecap: butt; stroke-linejoin: miter; stroke-miterlimit: 4; fill: #000000; fill-rule: ; opacity: 1;"> </tspan><tspan x="159.37" y="8.98" style="stroke: none; stroke-width: 0; stroke-dasharray: none; stroke-linecap: butt; stroke-linejoin: miter; stroke-miterlimit: 4; fill: #000000; fill-rule: ; opacity: 1;">क</tspan><tspan x="188.62" y="8.98" style="stroke: none; stroke-width: 0; stroke-dasharray: none; stroke-linecap: butt; stroke-linejoin: miter; stroke-miterlimit: 4; fill: #000000; fill-rule: ; opacity: 1;">े</tspan><tspan x="224.48" y="8.98" style="stroke: none; stroke-width: 0; stroke-dasharray: none; stroke-linecap: butt; stroke-linejoin: miter; stroke-miterlimit: 4; fill: #000000; fill-rule: ; opacity: 1;">र</tspan><tspan x="241.52" y="8.98" style="stroke: none; stroke-width: 0; stroke-dasharray: none; stroke-linecap: butt; stroke-linejoin: miter; stroke-miterlimit: 4; fill: #000000; fill-rule: ; opacity: 1;">्</tspan><tspan x="277.37" y="8.98" style="stroke: none; stroke-width: 0; stroke-dasharray: none; stroke-linecap: butt; stroke-linejoin: miter; stroke-miterlimit: 4; fill: #000000; fill-rule: ; opacity: 1;">ल</tspan><tspan x="305.77" y="8.98" style="stroke: none; stroke-width: 0; stroke-dasharray: none; stroke-linecap: butt; stroke-linejoin: miter; stroke-miterlimit: 4; fill: #000000; fill-rule: ; opacity: 1;">े</tspan><tspan x="341.63" y="8.98" style="stroke: none; stroke-width: 0; stroke-dasharray: none; stroke-linecap: butt; stroke-linejoin: miter; stroke-miterlimit: 4; fill: #000000; fill-rule: ; opacity: 1;">.</tspan><tspan x="352.75" y="8.98" style="stroke: none; stroke-width: 0; stroke-dasharray: none; stroke-linecap: butt; stroke-linejoin: miter; stroke-miterlimit: 4; fill: #000000; fill-rule: ; opacity: 1;"> </tspan></text>
 </g>
</svg>